<svg xmlns="http://www.w3.org/2000/svg" xmlns:xlink="http://www.w3.org/1999/xlink" width="500" zoomAndPan="magnify" viewBox="0 0 375 374.999991" height="500" preserveAspectRatio="xMidYMid meet" version="1.0"><defs><clipPath id="59ea961498"><path d="M 120 232 L 256 232 L 256 345 L 120 345 Z M 120 232 " clip-rule="nonzero"/></clipPath></defs><path fill="#c1caec" d="M 165 37.5 C 165 38.726562 164.941406 39.953125 164.820312 41.175781 C 164.699219 42.398438 164.519531 43.609375 164.28125 44.816406 C 164.039062 46.019531 163.742188 47.210938 163.386719 48.386719 C 163.027344 49.5625 162.617188 50.714844 162.144531 51.851562 C 161.675781 52.984375 161.152344 54.09375 160.570312 55.175781 C 159.992188 56.261719 159.363281 57.3125 158.679688 58.332031 C 157.996094 59.355469 157.265625 60.339844 156.488281 61.289062 C 155.707031 62.238281 154.886719 63.148438 154.015625 64.015625 C 153.148438 64.886719 152.238281 65.707031 151.289062 66.488281 C 150.339844 67.265625 149.355469 67.996094 148.332031 68.679688 C 147.3125 69.363281 146.261719 69.992188 145.175781 70.570312 C 144.09375 71.152344 142.984375 71.675781 141.851562 72.144531 C 140.714844 72.617188 139.5625 73.027344 138.386719 73.386719 C 137.210938 73.742188 136.019531 74.039062 134.816406 74.28125 C 133.609375 74.519531 132.398438 74.699219 131.175781 74.820312 C 129.953125 74.941406 128.726562 75 127.5 75 C 126.273438 75 125.046875 74.941406 123.824219 74.820312 C 122.601562 74.699219 121.386719 74.519531 120.183594 74.28125 C 118.980469 74.039062 117.789062 73.742188 116.613281 73.386719 C 115.4375 73.027344 114.285156 72.617188 113.148438 72.144531 C 112.015625 71.675781 110.90625 71.152344 109.824219 70.570312 C 108.738281 69.992188 107.6875 69.363281 106.667969 68.679688 C 105.644531 67.996094 104.660156 67.265625 103.710938 66.488281 C 102.761719 65.707031 101.851562 64.886719 100.984375 64.015625 C 100.113281 63.148438 99.292969 62.238281 98.511719 61.289062 C 97.734375 60.339844 97.003906 59.355469 96.320312 58.332031 C 95.636719 57.3125 95.007812 56.261719 94.429688 55.175781 C 93.847656 54.09375 93.324219 52.984375 92.855469 51.851562 C 92.382812 50.714844 91.972656 49.5625 91.613281 48.386719 C 91.257812 47.210938 90.960938 46.019531 90.71875 44.816406 C 90.480469 43.609375 90.300781 42.398438 90.179688 41.175781 C 90.058594 39.953125 90 38.726562 90 37.5 C 90 36.273438 90.058594 35.046875 90.179688 33.824219 C 90.300781 32.601562 90.480469 31.390625 90.71875 30.183594 C 90.960938 28.980469 91.257812 27.789062 91.613281 26.613281 C 91.972656 25.4375 92.382812 24.285156 92.855469 23.148438 C 93.324219 22.015625 93.847656 20.90625 94.429688 19.824219 C 95.007812 18.738281 95.636719 17.6875 96.320312 16.667969 C 97.003906 15.644531 97.734375 14.660156 98.511719 13.710938 C 99.292969 12.761719 100.113281 11.851562 100.984375 10.984375 C 101.851562 10.113281 102.761719 9.292969 103.710938 8.511719 C 104.660156 7.734375 105.644531 7.003906 106.667969 6.320312 C 107.6875 5.636719 108.738281 5.007812 109.824219 4.429688 C 110.90625 3.847656 112.015625 3.324219 113.148438 2.855469 C 114.285156 2.382812 115.4375 1.972656 116.613281 1.613281 C 117.789062 1.257812 118.980469 0.960938 120.183594 0.71875 C 121.386719 0.480469 122.601562 0.300781 123.824219 0.179688 C 125.046875 0.0585938 126.273438 0 127.5 0 C 128.726562 0 129.953125 0.0585938 131.175781 0.179688 C 132.398438 0.300781 133.609375 0.480469 134.816406 0.71875 C 136.019531 0.960938 137.210938 1.257812 138.386719 1.613281 C 139.5625 1.972656 140.714844 2.382812 141.851562 2.855469 C 142.984375 3.324219 144.09375 3.847656 145.175781 4.429688 C 146.261719 5.007812 147.3125 5.636719 148.332031 6.320312 C 149.355469 7.003906 150.339844 7.734375 151.289062 8.511719 C 152.238281 9.292969 153.148438 10.113281 154.015625 10.984375 C 154.886719 11.851562 155.707031 12.761719 156.488281 13.710938 C 157.265625 14.660156 157.996094 15.644531 158.679688 16.667969 C 159.363281 17.6875 159.992188 18.738281 160.570312 19.824219 C 161.152344 20.90625 161.675781 22.015625 162.144531 23.148438 C 162.617188 24.285156 163.027344 25.4375 163.386719 26.613281 C 163.742188 27.789062 164.039062 28.980469 164.28125 30.183594 C 164.519531 31.390625 164.699219 32.601562 164.820312 33.824219 C 164.941406 35.046875 165 36.273438 165 37.5 Z M 165 37.5 " fill-opacity="1" fill-rule="nonzero"/><path fill="#c1caec" d="M 283.5 37.5 C 283.5 38.726562 283.441406 39.953125 283.320312 41.175781 C 283.199219 42.398438 283.019531 43.609375 282.78125 44.816406 C 282.539062 46.019531 282.242188 47.210938 281.886719 48.386719 C 281.527344 49.5625 281.117188 50.714844 280.644531 51.851562 C 280.175781 52.984375 279.652344 54.09375 279.070312 55.175781 C 278.492188 56.261719 277.863281 57.3125 277.179688 58.332031 C 276.496094 59.355469 275.765625 60.339844 274.988281 61.289062 C 274.207031 62.238281 273.386719 63.148438 272.515625 64.015625 C 271.648438 64.886719 270.738281 65.707031 269.789062 66.488281 C 268.839844 67.265625 267.855469 67.996094 266.832031 68.679688 C 265.8125 69.363281 264.761719 69.992188 263.675781 70.570312 C 262.59375 71.152344 261.484375 71.675781 260.351562 72.144531 C 259.214844 72.617188 258.0625 73.027344 256.886719 73.386719 C 255.710938 73.742188 254.519531 74.039062 253.316406 74.28125 C 252.109375 74.519531 250.898438 74.699219 249.675781 74.820312 C 248.453125 74.941406 247.226562 75 246 75 C 244.773438 75 243.546875 74.941406 242.324219 74.820312 C 241.101562 74.699219 239.886719 74.519531 238.683594 74.28125 C 237.480469 74.039062 236.289062 73.742188 235.113281 73.386719 C 233.9375 73.027344 232.785156 72.617188 231.648438 72.144531 C 230.515625 71.675781 229.40625 71.152344 228.324219 70.570312 C 227.238281 69.992188 226.1875 69.363281 225.167969 68.679688 C 224.144531 67.996094 223.160156 67.265625 222.210938 66.488281 C 221.261719 65.707031 220.351562 64.886719 219.484375 64.015625 C 218.613281 63.148438 217.792969 62.238281 217.011719 61.289062 C 216.234375 60.339844 215.503906 59.355469 214.820312 58.332031 C 214.136719 57.3125 213.507812 56.261719 212.929688 55.175781 C 212.347656 54.09375 211.824219 52.984375 211.355469 51.851562 C 210.882812 50.714844 210.472656 49.5625 210.113281 48.386719 C 209.757812 47.210938 209.460938 46.019531 209.21875 44.816406 C 208.980469 43.609375 208.800781 42.398438 208.679688 41.175781 C 208.558594 39.953125 208.5 38.726562 208.5 37.5 C 208.5 36.273438 208.558594 35.046875 208.679688 33.824219 C 208.800781 32.601562 208.980469 31.390625 209.21875 30.183594 C 209.460938 28.980469 209.757812 27.789062 210.113281 26.613281 C 210.472656 25.4375 210.882812 24.285156 211.355469 23.148438 C 211.824219 22.015625 212.347656 20.90625 212.929688 19.824219 C 213.507812 18.738281 214.136719 17.6875 214.820312 16.667969 C 215.503906 15.644531 216.234375 14.660156 217.011719 13.710938 C 217.792969 12.761719 218.613281 11.851562 219.484375 10.984375 C 220.351562 10.113281 221.261719 9.292969 222.210938 8.511719 C 223.160156 7.734375 224.144531 7.003906 225.167969 6.320312 C 226.1875 5.636719 227.238281 5.007812 228.324219 4.429688 C 229.40625 3.847656 230.515625 3.324219 231.648438 2.855469 C 232.785156 2.382812 233.9375 1.972656 235.113281 1.613281 C 236.289062 1.257812 237.480469 0.960938 238.683594 0.71875 C 239.886719 0.480469 241.101562 0.300781 242.324219 0.179688 C 243.546875 0.0585938 244.773438 0 246 0 C 247.226562 0 248.453125 0.0585938 249.675781 0.179688 C 250.898438 0.300781 252.109375 0.480469 253.316406 0.71875 C 254.519531 0.960938 255.710938 1.257812 256.886719 1.613281 C 258.0625 1.972656 259.214844 2.382812 260.351562 2.855469 C 261.484375 3.324219 262.59375 3.847656 263.675781 4.429688 C 264.761719 5.007812 265.8125 5.636719 266.832031 6.320312 C 267.855469 7.003906 268.839844 7.734375 269.789062 8.511719 C 270.738281 9.292969 271.648438 10.113281 272.515625 10.984375 C 273.386719 11.851562 274.207031 12.761719 274.988281 13.710938 C 275.765625 14.660156 276.496094 15.644531 277.179688 16.667969 C 277.863281 17.6875 278.492188 18.738281 279.070312 19.824219 C 279.652344 20.90625 280.175781 22.015625 280.644531 23.148438 C 281.117188 24.285156 281.527344 25.4375 281.886719 26.613281 C 282.242188 27.789062 282.539062 28.980469 282.78125 30.183594 C 283.019531 31.390625 283.199219 32.601562 283.320312 33.824219 C 283.441406 35.046875 283.5 36.273438 283.5 37.5 Z M 283.5 37.5 " fill-opacity="1" fill-rule="nonzero"/><path fill="#c1caec" d="M 232.703125 180.203125 C 232.703125 181.675781 232.628906 183.148438 232.484375 184.613281 C 232.339844 186.078125 232.125 187.535156 231.835938 188.980469 C 231.550781 190.425781 231.191406 191.855469 230.765625 193.265625 C 230.335938 194.675781 229.839844 196.0625 229.277344 197.421875 C 228.714844 198.785156 228.082031 200.117188 227.390625 201.414062 C 226.695312 202.714844 225.9375 203.976562 225.117188 205.203125 C 224.300781 206.429688 223.421875 207.609375 222.488281 208.75 C 221.554688 209.890625 220.5625 210.980469 219.523438 212.023438 C 218.480469 213.0625 217.390625 214.054688 216.25 214.988281 C 215.109375 215.921875 213.929688 216.800781 212.703125 217.617188 C 211.476562 218.4375 210.214844 219.195312 208.914062 219.890625 C 207.617188 220.582031 206.285156 221.214844 204.921875 221.777344 C 203.5625 222.339844 202.175781 222.835938 200.765625 223.265625 C 199.355469 223.691406 197.925781 224.050781 196.480469 224.335938 C 195.035156 224.625 193.578125 224.839844 192.113281 224.984375 C 190.648438 225.128906 189.175781 225.203125 187.703125 225.203125 C 186.230469 225.203125 184.757812 225.128906 183.292969 224.984375 C 181.824219 224.839844 180.367188 224.625 178.921875 224.335938 C 177.476562 224.050781 176.050781 223.691406 174.640625 223.265625 C 173.230469 222.835938 171.84375 222.339844 170.480469 221.777344 C 169.121094 221.214844 167.789062 220.582031 166.488281 219.890625 C 165.191406 219.195312 163.925781 218.4375 162.703125 217.617188 C 161.476562 216.800781 160.292969 215.921875 159.15625 214.988281 C 158.015625 214.054688 156.925781 213.0625 155.882812 212.023438 C 154.839844 210.980469 153.851562 209.890625 152.917969 208.75 C 151.980469 207.609375 151.105469 206.429688 150.285156 205.203125 C 149.46875 203.976562 148.710938 202.714844 148.015625 201.414062 C 147.320312 200.117188 146.691406 198.785156 146.128906 197.421875 C 145.5625 196.0625 145.066406 194.675781 144.640625 193.265625 C 144.210938 191.855469 143.855469 190.425781 143.566406 188.980469 C 143.28125 187.535156 143.0625 186.078125 142.917969 184.613281 C 142.773438 183.148438 142.703125 181.675781 142.703125 180.203125 C 142.703125 178.730469 142.773438 177.257812 142.917969 175.792969 C 143.0625 174.324219 143.28125 172.867188 143.566406 171.421875 C 143.855469 169.976562 144.210938 168.550781 144.640625 167.140625 C 145.066406 165.730469 145.5625 164.34375 146.128906 162.980469 C 146.691406 161.621094 147.320312 160.289062 148.015625 158.988281 C 148.710938 157.691406 149.46875 156.425781 150.285156 155.203125 C 151.105469 153.976562 151.980469 152.792969 152.917969 151.65625 C 153.851562 150.515625 154.839844 149.425781 155.882812 148.382812 C 156.925781 147.339844 158.015625 146.351562 159.15625 145.417969 C 160.292969 144.480469 161.476562 143.605469 162.703125 142.785156 C 163.925781 141.96875 165.191406 141.210938 166.488281 140.515625 C 167.789062 139.820312 169.121094 139.191406 170.480469 138.628906 C 171.84375 138.0625 173.230469 137.566406 174.640625 137.140625 C 176.050781 136.710938 177.476562 136.355469 178.921875 136.066406 C 180.367188 135.78125 181.824219 135.5625 183.292969 135.417969 C 184.757812 135.273438 186.230469 135.203125 187.703125 135.203125 C 189.175781 135.203125 190.648438 135.273438 192.113281 135.417969 C 193.578125 135.5625 195.035156 135.78125 196.480469 136.066406 C 197.925781 136.355469 199.355469 136.710938 200.765625 137.140625 C 202.175781 137.566406 203.5625 138.0625 204.921875 138.628906 C 206.285156 139.191406 207.617188 139.820312 208.914062 140.515625 C 210.214844 141.210938 211.476562 141.96875 212.703125 142.785156 C 213.929688 143.605469 215.109375 144.480469 216.25 145.417969 C 217.390625 146.351562 218.480469 147.339844 219.523438 148.382812 C 220.5625 149.425781 221.554688 150.515625 222.488281 151.65625 C 223.421875 152.792969 224.300781 153.976562 225.117188 155.203125 C 225.9375 156.425781 226.695312 157.691406 227.390625 158.988281 C 228.082031 160.289062 228.714844 161.621094 229.277344 162.980469 C 229.839844 164.34375 230.335938 165.730469 230.765625 167.140625 C 231.191406 168.550781 231.550781 169.976562 231.835938 171.421875 C 232.125 172.867188 232.339844 174.324219 232.484375 175.792969 C 232.628906 177.257812 232.703125 178.730469 232.703125 180.203125 Z M 232.703125 180.203125 " fill-opacity="1" fill-rule="nonzero"/><g clip-path="url(#59ea961498)"><path fill="#c1caec" d="M 187.703125 345.203125 C 141.53125 345.203125 124.941406 333.757812 123.203125 332.453125 C 121.3125 331.042969 120.203125 328.816406 120.203125 326.453125 L 120.203125 300.203125 C 120.203125 262.980469 150.488281 232.703125 187.703125 232.703125 C 224.925781 232.703125 255.203125 262.980469 255.203125 300.203125 L 255.203125 326.453125 C 255.203125 328.808594 254.09375 331.035156 252.203125 332.453125 C 250.46875 333.757812 233.871094 345.203125 187.703125 345.203125 Z M 187.703125 345.203125 " fill-opacity="1" fill-rule="nonzero"/></g><path fill="#c1caec" d="M 132.921875 238.6875 C 125.601562 209.339844 99.082031 187.5 67.5 187.5 C 30.285156 187.5 0 217.777344 0 255 L 0 281.25 C 0 283.605469 1.109375 285.832031 3 287.25 C 4.738281 288.554688 21.328125 300 67.5 300 C 83.496094 300 95.871094 298.613281 105.382812 296.761719 C 106.335938 273.699219 116.765625 253.085938 132.921875 238.6875 Z M 132.921875 238.6875 " fill-opacity="1" fill-rule="nonzero"/><path fill="#c1caec" d="M 307.5 187.5 C 276.023438 187.5 249.585938 209.191406 242.152344 238.386719 C 258.515625 252.816406 269.09375 273.585938 270.039062 296.84375 C 279.496094 298.648438 291.734375 300 307.5 300 C 353.664062 300 370.261719 288.554688 372 287.25 C 373.890625 285.839844 375 283.613281 375 281.25 L 375 255 C 375 217.777344 344.722656 187.5 307.5 187.5 Z M 307.5 187.5 " fill-opacity="1" fill-rule="nonzero"/><path fill="#c1caec" d="M 352.703125 135.203125 C 352.703125 136.675781 352.628906 138.148438 352.484375 139.613281 C 352.339844 141.078125 352.125 142.535156 351.835938 143.980469 C 351.550781 145.425781 351.191406 146.855469 350.765625 148.265625 C 350.335938 149.675781 349.839844 151.0625 349.277344 152.421875 C 348.714844 153.785156 348.082031 155.117188 347.390625 156.414062 C 346.695312 157.714844 345.9375 158.976562 345.117188 160.203125 C 344.300781 161.429688 343.421875 162.609375 342.488281 163.75 C 341.554688 164.890625 340.5625 165.980469 339.523438 167.023438 C 338.480469 168.0625 337.390625 169.054688 336.25 169.988281 C 335.109375 170.921875 333.929688 171.800781 332.703125 172.617188 C 331.476562 173.4375 330.214844 174.195312 328.914062 174.890625 C 327.617188 175.582031 326.285156 176.214844 324.921875 176.777344 C 323.5625 177.339844 322.175781 177.835938 320.765625 178.265625 C 319.355469 178.691406 317.925781 179.050781 316.480469 179.335938 C 315.035156 179.625 313.578125 179.839844 312.113281 179.984375 C 310.648438 180.128906 309.175781 180.203125 307.703125 180.203125 C 306.230469 180.203125 304.757812 180.128906 303.292969 179.984375 C 301.824219 179.839844 300.367188 179.625 298.921875 179.335938 C 297.476562 179.050781 296.050781 178.691406 294.640625 178.265625 C 293.230469 177.835938 291.84375 177.339844 290.480469 176.777344 C 289.121094 176.214844 287.789062 175.582031 286.488281 174.890625 C 285.191406 174.195312 283.925781 173.4375 282.703125 172.617188 C 281.476562 171.800781 280.292969 170.921875 279.15625 169.988281 C 278.015625 169.054688 276.925781 168.0625 275.882812 167.023438 C 274.839844 165.980469 273.851562 164.890625 272.917969 163.75 C 271.980469 162.609375 271.105469 161.429688 270.285156 160.203125 C 269.46875 158.976562 268.710938 157.714844 268.015625 156.414062 C 267.320312 155.117188 266.691406 153.785156 266.128906 152.421875 C 265.5625 151.0625 265.066406 149.675781 264.640625 148.265625 C 264.210938 146.855469 263.855469 145.425781 263.566406 143.980469 C 263.28125 142.535156 263.0625 141.078125 262.917969 139.613281 C 262.773438 138.148438 262.703125 136.675781 262.703125 135.203125 C 262.703125 133.730469 262.773438 132.257812 262.917969 130.792969 C 263.0625 129.324219 263.28125 127.867188 263.566406 126.421875 C 263.855469 124.976562 264.210938 123.550781 264.640625 122.140625 C 265.066406 120.730469 265.5625 119.34375 266.128906 117.980469 C 266.691406 116.621094 267.320312 115.289062 268.015625 113.988281 C 268.710938 112.691406 269.46875 111.425781 270.285156 110.203125 C 271.105469 108.976562 271.980469 107.792969 272.917969 106.65625 C 273.851562 105.515625 274.839844 104.425781 275.882812 103.382812 C 276.925781 102.339844 278.015625 101.351562 279.15625 100.417969 C 280.292969 99.480469 281.476562 98.605469 282.703125 97.785156 C 283.925781 96.96875 285.191406 96.210938 286.488281 95.515625 C 287.789062 94.820312 289.121094 94.191406 290.480469 93.628906 C 291.84375 93.0625 293.230469 92.566406 294.640625 92.140625 C 296.050781 91.710938 297.476562 91.355469 298.921875 91.066406 C 300.367188 90.78125 301.824219 90.5625 303.292969 90.417969 C 304.757812 90.273438 306.230469 90.203125 307.703125 90.203125 C 309.175781 90.203125 310.648438 90.273438 312.113281 90.417969 C 313.578125 90.5625 315.035156 90.78125 316.480469 91.066406 C 317.925781 91.355469 319.355469 91.710938 320.765625 92.140625 C 322.175781 92.566406 323.5625 93.0625 324.921875 93.628906 C 326.285156 94.191406 327.617188 94.820312 328.914062 95.515625 C 330.214844 96.210938 331.476562 96.96875 332.703125 97.785156 C 333.929688 98.605469 335.109375 99.480469 336.25 100.417969 C 337.390625 101.351562 338.480469 102.339844 339.523438 103.382812 C 340.5625 104.425781 341.554688 105.515625 342.488281 106.65625 C 343.421875 107.792969 344.300781 108.976562 345.117188 110.203125 C 345.9375 111.425781 346.695312 112.691406 347.390625 113.988281 C 348.082031 115.289062 348.714844 116.621094 349.277344 117.980469 C 349.839844 119.34375 350.335938 120.730469 350.765625 122.140625 C 351.191406 123.550781 351.550781 124.976562 351.835938 126.421875 C 352.125 127.867188 352.339844 129.324219 352.484375 130.792969 C 352.628906 132.257812 352.703125 133.730469 352.703125 135.203125 Z M 352.703125 135.203125 " fill-opacity="1" fill-rule="nonzero"/><path fill="#c1caec" d="M 112.703125 135.203125 C 112.703125 136.675781 112.628906 138.148438 112.484375 139.613281 C 112.339844 141.078125 112.125 142.535156 111.835938 143.980469 C 111.550781 145.425781 111.191406 146.855469 110.765625 148.265625 C 110.335938 149.675781 109.839844 151.0625 109.277344 152.421875 C 108.714844 153.785156 108.082031 155.117188 107.390625 156.414062 C 106.695312 157.714844 105.9375 158.976562 105.117188 160.203125 C 104.300781 161.429688 103.421875 162.609375 102.488281 163.75 C 101.554688 164.890625 100.5625 165.980469 99.523438 167.023438 C 98.480469 168.0625 97.390625 169.054688 96.25 169.988281 C 95.109375 170.921875 93.929688 171.800781 92.703125 172.617188 C 91.476562 173.4375 90.214844 174.195312 88.914062 174.890625 C 87.617188 175.582031 86.285156 176.214844 84.921875 176.777344 C 83.5625 177.339844 82.175781 177.835938 80.765625 178.265625 C 79.355469 178.691406 77.925781 179.050781 76.480469 179.335938 C 75.035156 179.625 73.578125 179.839844 72.113281 179.984375 C 70.648438 180.128906 69.175781 180.203125 67.703125 180.203125 C 66.230469 180.203125 64.757812 180.128906 63.292969 179.984375 C 61.824219 179.839844 60.367188 179.625 58.921875 179.335938 C 57.476562 179.050781 56.050781 178.691406 54.640625 178.265625 C 53.230469 177.835938 51.84375 177.339844 50.480469 176.777344 C 49.121094 176.214844 47.789062 175.582031 46.488281 174.890625 C 45.191406 174.195312 43.925781 173.4375 42.703125 172.617188 C 41.476562 171.800781 40.292969 170.921875 39.15625 169.988281 C 38.015625 169.054688 36.925781 168.0625 35.882812 167.023438 C 34.839844 165.980469 33.851562 164.890625 32.917969 163.75 C 31.980469 162.609375 31.105469 161.429688 30.285156 160.203125 C 29.46875 158.976562 28.710938 157.714844 28.015625 156.414062 C 27.320312 155.117188 26.691406 153.785156 26.128906 152.421875 C 25.5625 151.0625 25.066406 149.675781 24.640625 148.265625 C 24.210938 146.855469 23.855469 145.425781 23.566406 143.980469 C 23.28125 142.535156 23.0625 141.078125 22.917969 139.613281 C 22.773438 138.148438 22.703125 136.675781 22.703125 135.203125 C 22.703125 133.730469 22.773438 132.257812 22.917969 130.792969 C 23.0625 129.324219 23.28125 127.867188 23.566406 126.421875 C 23.855469 124.976562 24.210938 123.550781 24.640625 122.140625 C 25.066406 120.730469 25.5625 119.34375 26.128906 117.980469 C 26.691406 116.621094 27.320312 115.289062 28.015625 113.988281 C 28.710938 112.691406 29.46875 111.425781 30.285156 110.203125 C 31.105469 108.976562 31.980469 107.792969 32.917969 106.65625 C 33.851562 105.515625 34.839844 104.425781 35.882812 103.382812 C 36.925781 102.339844 38.015625 101.351562 39.15625 100.417969 C 40.292969 99.480469 41.476562 98.605469 42.703125 97.785156 C 43.925781 96.96875 45.191406 96.210938 46.488281 95.515625 C 47.789062 94.820312 49.121094 94.191406 50.480469 93.628906 C 51.84375 93.0625 53.230469 92.566406 54.640625 92.140625 C 56.050781 91.710938 57.476562 91.355469 58.921875 91.066406 C 60.367188 90.78125 61.824219 90.5625 63.292969 90.417969 C 64.757812 90.273438 66.230469 90.203125 67.703125 90.203125 C 69.175781 90.203125 70.648438 90.273438 72.113281 90.417969 C 73.578125 90.5625 75.035156 90.78125 76.480469 91.066406 C 77.925781 91.355469 79.355469 91.710938 80.765625 92.140625 C 82.175781 92.566406 83.5625 93.0625 84.921875 93.628906 C 86.285156 94.191406 87.617188 94.820312 88.914062 95.515625 C 90.214844 96.210938 91.476562 96.96875 92.703125 97.785156 C 93.929688 98.605469 95.109375 99.480469 96.25 100.417969 C 97.390625 101.351562 98.480469 102.339844 99.523438 103.382812 C 100.5625 104.425781 101.554688 105.515625 102.488281 106.65625 C 103.421875 107.792969 104.300781 108.976562 105.117188 110.203125 C 105.9375 111.425781 106.695312 112.691406 107.390625 113.988281 C 108.082031 115.289062 108.714844 116.621094 109.277344 117.980469 C 109.839844 119.34375 110.335938 120.730469 110.765625 122.140625 C 111.191406 123.550781 111.550781 124.976562 111.835938 126.421875 C 112.125 127.867188 112.339844 129.324219 112.484375 130.792969 C 112.628906 132.257812 112.703125 133.730469 112.703125 135.203125 Z M 112.703125 135.203125 " fill-opacity="1" fill-rule="nonzero"/><path fill="#c1caec" d="M 247.703125 180.203125 C 247.703125 188.609375 245.953125 196.613281 242.820312 203.871094 C 250.132812 194.609375 259.363281 187.066406 269.820312 181.671875 C 256.335938 170.664062 247.710938 153.921875 247.710938 135.203125 C 247.710938 116.371094 256.449219 99.5625 270.058594 88.550781 C 262.890625 84.726562 254.796875 82.5 246 82.5 C 221.707031 82.5 201.644531 98.578125 195.523438 120.773438 C 224.910156 124.628906 247.703125 149.773438 247.703125 180.203125 Z M 247.703125 180.203125 " fill-opacity="1" fill-rule="nonzero"/><path fill="#c1caec" d="M 127.703125 135.203125 C 127.703125 153.988281 119.003906 170.78125 105.433594 181.792969 C 116.355469 187.460938 125.894531 195.511719 133.320312 205.386719 C 129.75 197.722656 127.703125 189.203125 127.703125 180.203125 C 127.703125 150.40625 149.558594 125.683594 178.058594 121.050781 C 172.035156 98.714844 151.898438 82.5 127.5 82.5 C 119.160156 82.5 111.425781 84.480469 104.535156 87.945312 C 118.605469 98.933594 127.703125 116.011719 127.703125 135.203125 Z M 127.703125 135.203125 " fill-opacity="1" fill-rule="nonzero"/></svg>