<svg xmlns="http://www.w3.org/2000/svg" xmlns:xlink="http://www.w3.org/1999/xlink" width="500" zoomAndPan="magnify" viewBox="0 0 375 374.999991" height="500" preserveAspectRatio="xMidYMid meet" version="1.0"><defs><g/><clipPath id="ff5a1a5241"><path d="M 2.082031 43.683594 L 175.410156 43.683594 L 175.410156 375 L 2.082031 375 Z M 2.082031 43.683594 " clip-rule="nonzero"/></clipPath></defs><g clip-path="url(#ff5a1a5241)"><path fill="#c1caec" d="M 168.1875 43.859375 L 100.460938 43.859375 C 99.109375 43.859375 97.792969 44.234375 96.652344 44.941406 L 5.496094 101.417969 C 3.371094 102.730469 2.082031 105.050781 2.082031 107.539062 L 2.082031 162.339844 C 2.082031 164.953125 3.503906 167.359375 5.792969 168.636719 C 8.074219 169.914062 10.875 169.839844 13.109375 168.472656 L 103.191406 112.734375 L 103.191406 368.164062 C 103.191406 372.140625 106.425781 375.371094 110.410156 375.371094 L 168.1875 375.371094 C 172.175781 375.371094 175.410156 372.140625 175.410156 368.164062 L 175.410156 51.066406 C 175.410156 47.085938 172.175781 43.859375 168.1875 43.859375 Z M 168.1875 43.859375 " fill-opacity="1" fill-rule="nonzero"/></g><g fill="#c1caec" fill-opacity="1"><g transform="translate(192.085451, 163.715291)"><g><path d="M 46.578125 1.765625 C 38.335938 1.765625 30.21875 0.882812 22.21875 -0.875 C 14.226562 -2.644531 7.765625 -4.941406 2.828125 -7.765625 L 13.765625 -34.046875 C 18.234375 -31.335938 23.523438 -29.21875 29.640625 -27.6875 C 35.753906 -26.164062 41.691406 -25.40625 47.453125 -25.40625 C 52.035156 -25.40625 55.238281 -25.785156 57.0625 -26.546875 C 58.882812 -27.316406 59.796875 -28.460938 59.796875 -29.984375 C 59.796875 -31.515625 58.648438 -32.570312 56.359375 -33.15625 C 54.066406 -33.75 50.332031 -34.335938 45.15625 -34.921875 C 37.28125 -35.867188 30.578125 -37.078125 25.046875 -38.546875 C 19.523438 -40.015625 14.675781 -42.863281 10.5 -47.09375 C 6.320312 -51.332031 4.234375 -57.390625 4.234375 -65.265625 C 4.234375 -71.503906 6.113281 -77.09375 9.875 -82.03125 C 13.644531 -86.96875 19.257812 -90.90625 26.71875 -93.84375 C 34.1875 -96.789062 43.15625 -98.265625 53.625 -98.265625 C 60.914062 -98.265625 68.0625 -97.585938 75.0625 -96.234375 C 82.0625 -94.878906 88.03125 -92.90625 92.96875 -90.3125 L 82.03125 -64.03125 C 73.5625 -68.738281 64.269531 -71.09375 54.15625 -71.09375 C 45.457031 -71.09375 41.109375 -69.5625 41.109375 -66.5 C 41.109375 -64.976562 42.28125 -63.890625 44.625 -63.234375 C 46.976562 -62.585938 50.6875 -61.972656 55.75 -61.390625 C 63.625 -60.453125 70.296875 -59.21875 75.765625 -57.6875 C 81.234375 -56.15625 86.054688 -53.269531 90.234375 -49.03125 C 94.410156 -44.800781 96.5 -38.75 96.5 -30.875 C 96.5 -24.875 94.613281 -19.40625 90.84375 -14.46875 C 87.082031 -9.53125 81.4375 -5.585938 73.90625 -2.640625 C 66.382812 0.296875 57.273438 1.765625 46.578125 1.765625 Z M 46.578125 1.765625 "/></g></g></g><g fill="#c1caec" fill-opacity="1"><g transform="translate(291.732424, 163.715291)"><g><path d="M 79.90625 -3.359375 C 73.914062 0.0546875 65.742188 1.765625 55.390625 1.765625 C 41.867188 1.765625 31.460938 -1.492188 24.171875 -8.015625 C 16.878906 -14.546875 13.234375 -24.335938 13.234375 -37.390625 L 13.234375 -62.09375 L 0 -62.09375 L 0 -91.203125 L 13.234375 -91.203125 L 13.234375 -118.1875 L 53.09375 -118.1875 L 53.09375 -91.203125 L 72.859375 -91.203125 L 72.859375 -62.09375 L 53.09375 -62.09375 L 53.09375 -37.75 C 53.09375 -34.8125 53.859375 -32.519531 55.390625 -30.875 C 56.921875 -29.226562 58.921875 -28.40625 61.390625 -28.40625 C 64.796875 -28.40625 67.796875 -29.285156 70.390625 -31.046875 Z M 79.90625 -3.359375 "/></g></g></g></svg>