<svg xmlns="http://www.w3.org/2000/svg" xmlns:xlink="http://www.w3.org/1999/xlink" width="500" zoomAndPan="magnify" viewBox="0 0 375 374.999991" height="500" preserveAspectRatio="xMidYMid meet" version="1.0"><defs><clipPath id="a6920de983"><path d="M 33.117188 5 L 340 5 L 340 375 L 33.117188 375 Z M 33.117188 5 " clip-rule="nonzero"/></clipPath></defs><g clip-path="url(#a6920de983)"><path fill="#c1caec" d="M 310.6875 97.746094 L 305.507812 97.082031 L 306.078125 89.765625 L 310.972656 90.144531 Z M 307.074219 113.566406 L 301.46875 112.234375 L 304.035156 104.585938 L 309.402344 105.585938 Z M 298.996094 129.8125 L 293.199219 127.675781 L 297.902344 119.929688 L 303.605469 121.6875 Z M 286.5 145.964844 L 280.605469 142.972656 L 287.402344 135.324219 L 293.246094 137.886719 Z M 270.339844 162.019531 L 264.402344 158.269531 L 272.90625 150.621094 L 278.800781 153.992188 Z M 275.332031 30.335938 L 277.515625 29.574219 L 283.410156 34.183594 L 281.035156 34.894531 Z M 269.296875 26.058594 L 262.929688 22.117188 L 264.640625 21.355469 L 271.195312 25.347656 Z M 256.371094 18.410156 L 249.71875 14.847656 L 251.144531 14.183594 L 257.9375 17.699219 Z M 288.875 39.125 L 293.816406 44.398438 L 290.871094 44.96875 L 286.214844 39.742188 Z M 298.140625 50.050781 L 301.847656 55.988281 L 298.332031 56.367188 L 294.910156 50.527344 Z M 307.359375 68.816406 L 303.273438 68.957031 L 301.136719 62.542969 L 304.9375 62.308594 Z M 310.449219 82.78125 L 305.839844 82.59375 L 304.84375 75.65625 L 309.214844 75.703125 Z M 251.570312 178.269531 L 245.488281 173.898438 L 255.230469 165.964844 L 261.21875 170.097656 Z M 231.28125 195.511719 L 224.722656 190.621094 L 235.269531 182.070312 L 241.542969 186.722656 Z M 210.511719 214.65625 L 203.195312 209.480469 L 213.980469 199.742188 L 220.871094 204.777344 Z M 190.410156 236.84375 L 181.859375 231.808594 L 192.453125 220.121094 L 200.34375 225.296875 Z M 172.164062 263.253906 L 161.992188 258.789062 L 171.6875 244.632812 L 181.003906 249.433594 Z M 156.765625 294.65625 L 144.742188 291.332031 L 152.964844 274.324219 L 164.039062 278.265625 Z M 144.933594 331.710938 L 130.960938 329.90625 L 137.378906 309.859375 L 150.398438 312.425781 Z M 243.066406 11.476562 L 236.460938 8.199219 L 237.648438 7.628906 L 244.347656 10.8125 Z M 332.5 74.230469 C 325.277344 57.652344 313.253906 42.210938 296.289062 30.429688 C 280.652344 19.410156 262.074219 11.714844 245.628906 5.015625 L 220.96875 5.015625 C 224.199219 7.011719 228.378906 9.8125 231.707031 11.761719 C 245.867188 20.074219 258.746094 29.003906 267.394531 38.886719 C 276.851562 49.339844 280.652344 61.214844 280.9375 74.230469 C 280.417969 88.339844 275.378906 101.832031 264.070312 113.945312 C 252.234375 127.058594 233.464844 138.980469 209.5625 153.707031 C 184.089844 169.527344 151.160156 190.335938 120.507812 223.113281 C 84.867188 260.644531 55.121094 314.277344 33.117188 374.65625 L 120.9375 374.65625 L 125.496094 351.472656 L 140.46875 352.375 L 136.902344 374.65625 L 224.722656 374.65625 C 222.011719 336.9375 224.292969 306.820312 234.9375 279.976562 C 244.347656 255.324219 262.453125 232.140625 283.886719 208.246094 C 303.179688 186.488281 324.085938 163.207031 333.59375 137.554688 C 342.382812 114.847656 339.960938 92.425781 332.5 74.230469 " fill-opacity="1" fill-rule="nonzero"/></g></svg>